<?xml version="1.0" standalone="no"?><!DOCTYPE svg PUBLIC "-//W3C//DTD SVG 1.1//EN" "http://www.w3.org/Graphics/SVG/1.1/DTD/svg11.dtd"><svg t="1510737736972" class="icon" style="" viewBox="0 0 1024 1024" version="1.1" xmlns="http://www.w3.org/2000/svg" p-id="999" xmlns:xlink="http://www.w3.org/1999/xlink" width="200" height="200"><defs><style type="text/css"></style></defs><path d="M235.464704 520.59648c67.60448 131.96288 228.818944 183.967744 360.779776 117.013504 131.960832-67.605504 183.96672-228.820992 117.010432-360.782848-67.606528-131.960832-228.818944-183.963648-360.782848-117.009408-131.959808 67.60448-184.613888 228.818944-117.00736 360.778752z m147.069952-293.796864c95.936512-49.406976 214.278144-10.91584 263.10656 85.02272 49.403904 95.935488 10.91584 214.27712-85.019648 263.107584-95.937536 49.40288-214.280192 10.912768-263.109632-85.02272-48.82944-95.936512-10.914816-213.702656 85.02272-263.107584zM754.992128 839.71072l-76.055552-150.665216c-8.452096-16.251904-41.088-17.634304-57.337856-9.183232l-7.801856 3.90144c-16.248832 8.450048-26.643456 34.952192-18.193408 51.202048l76.058624 150.66624c8.450048 16.25088 32.49152 16.405504 48.744448 7.954432l7.798784-3.90144c16.251904-8.450048 35.238912-33.073152 26.786816-49.974272z" fill="#bfbfbf" p-id="1000"></path></svg>